<svg width="53" height="61" viewBox="0 0 53 61" fill="none" xmlns="http://www.w3.org/2000/svg">
<g clip-path="url(#clip0_6_42)">
<g clip-path="url(#clip1_6_42)">
<g clip-path="url(#clip2_6_42)">
<path d="M24.0338 18.9602V13.1788C24.0338 12.2605 23.6106 11.8293 22.7242 11.8293H21.2869V20.3018H22.7242C23.6106 20.3098 24.0338 19.8786 24.0338 18.9602Z" fill="white"/>
<path d="M47.6225 0.777588H5.33211C1.8984 0.777588 0.636719 2.03927 0.636719 5.47298V46.8531C0.636719 47.2444 0.652689 47.6037 0.684631 47.9391C0.764484 48.6897 0.780455 49.4164 1.47518 50.2389C1.54705 50.3187 2.25775 50.8457 2.25775 50.8457C2.64104 51.0294 2.90456 51.1731 3.33577 51.3488L24.1616 60.0768C25.2396 60.5719 25.6948 60.7636 26.4773 60.7476C27.2599 60.7636 27.715 60.5719 28.7931 60.0768L49.6189 51.3488C50.0501 51.1731 50.3136 51.0374 50.6969 50.8457C50.6969 50.8457 51.4076 50.3187 51.4795 50.2389C52.1742 49.4164 52.1902 48.6897 52.27 47.9391C52.3019 47.6037 52.3179 47.2444 52.3179 46.8531V5.47298C52.3179 2.03927 51.0483 0.777588 47.6225 0.777588ZM29.1125 8.74697H32.6101V31.7368H29.1125V8.74697ZM27.5873 40.0016L27.6352 40.0815L27.6831 40.0016L27.731 39.9138L27.7869 39.834L27.8348 39.7461L27.8827 39.6742L27.9307 39.5864L27.9866 39.5065L28.0345 39.4187L28.0824 39.3389L28.1303 39.267L28.1862 39.1791L28.2341 39.0993L28.282 39.0115L28.3299 38.9316L28.3858 38.8438L28.4337 38.7639L28.4816 38.6761L28.5296 38.5962L28.5775 38.5164L28.6334 38.4285L28.6813 38.3487L28.7292 38.2608L28.7771 38.181L28.833 38.0931L28.8809 38.0133L28.9288 37.9334L28.9767 37.8456L29.0326 37.7737L29.0805 37.6859L29.1285 37.606L29.1764 37.5182L29.2323 37.4463L29.2802 37.3585L29.3281 37.2786H29.4239H29.5197H29.6076H29.7034H29.7992H29.8951H29.9829H30.0787H30.1745H30.2704H30.3582H30.454H30.5499H30.6457H30.7335H30.8293H30.9252H31.021H31.1088H31.2046H31.3005V37.3745V37.4703V37.5661V37.6619V37.7578V37.8536V37.9494V38.0452V38.1411V38.2369V38.3327V38.4285V38.5244V38.6202V38.716V38.8118V38.9076V39.0035V39.0913V39.1871V39.283V39.3788V39.4746V39.5704V39.6663V39.7621V39.8579V39.9537V40.0496V40.1454V40.2412V40.337V40.4328V40.5287V40.6245V40.7203V40.8161V40.912V41.0078V41.1036V41.1994V41.2953V41.3911V41.4869V41.5827V41.6786V41.7744V41.8702V41.966V42.0619V42.1577V42.2535V42.3493V42.4452V42.533V42.6288V42.7246V42.8205V42.9163V43.0121V43.1079V43.2038V43.2996V43.3954V43.4912V43.5871V43.6829V43.7787V43.8745V43.9704V44.0662V44.162V44.2578H31.2046H31.1088H31.013H30.9092H30.8134H30.7175H30.6217H30.5259H30.4301H30.3263H30.2304H30.1346H30.0228H29.927H29.8312H29.7274H29.6315H29.5357H29.4399V44.162V44.0662V43.9704V43.8745V43.7787V43.6829V43.5871V43.4912V43.3954V43.3395V43.2437V43.1479V43.052V42.9562V42.8604V42.7646V42.6687V42.5729V42.4771V42.3813V42.2854V42.1896V42.0938V41.998V41.9022V41.8063V41.7105V41.6147V41.5189V41.423V41.3272V41.2314V41.1356V41.0397V40.9439V40.8481V40.7523V40.6564V40.5606V40.4648V40.369V40.2731V40.1773L29.392 40.2572L29.3361 40.345L29.2882 40.4249L29.2323 40.5047L29.1844 40.5926L29.1285 40.6724L29.0805 40.7523L29.0326 40.8401L28.9767 40.92L28.9288 40.9998L28.8729 41.0797L28.825 41.1675L28.7691 41.2474L28.7212 41.3272L28.6733 41.415L28.6174 41.4949L28.5695 41.5748L28.5136 41.6626L28.4657 41.7424L28.4098 41.8223L28.3619 41.9101L28.314 41.99L28.2581 42.0698L28.2101 42.1577L28.1542 42.2375L28.1063 42.3174L28.0504 42.3972L28.0025 42.4851L27.9546 42.5649L27.8987 42.6448L27.8508 42.7326L27.7949 42.8125L27.747 42.8923L27.6911 42.9802L27.6432 43.06H27.6033L27.5474 42.9722L27.4994 42.8923L27.4435 42.8045L27.3956 42.7246L27.3397 42.6368L27.2918 42.557L27.2359 42.4691L27.188 42.3893L27.1321 42.3014L27.0842 42.2216L27.0283 42.1337L26.9804 42.0539L26.9245 41.966L26.8766 41.8862L26.8207 41.7983L26.7728 41.7185L26.7169 41.6307L26.661 41.5508L26.6131 41.463L26.5572 41.3831L26.5093 41.2953L26.4534 41.2154L26.4055 41.1276L26.3496 41.0477L26.3016 40.9599L26.2457 40.88L26.1978 40.7922L26.1419 40.7123L26.094 40.6245L26.0381 40.5446L25.9902 40.4568L25.9343 40.377L25.8864 40.2891L25.8305 40.2093V40.3051V40.4009V40.4967V40.5926V40.6884V40.7842V40.88V40.9759V41.0717V41.1675V41.2553V41.3512V41.447V41.5428V41.6386V41.7345V41.8303V41.9261V42.0219V42.1178V42.2136V42.3094V42.4052V42.5011V42.5969V42.6927V42.7885V42.8844V42.9802V43.076V43.1718V43.2676V43.3555V43.4513V43.5471V43.643V43.7388V43.8346V43.9304V44.0263V44.1221V44.2179V44.3137H25.7347H25.6389H25.543H25.4472H25.3514H25.2556H25.1597H25.0639H24.9681H24.8723H24.7764H24.6726H24.5768H24.481H24.3852H24.2893H24.1935H24.0977H24.0019V44.2179V44.1221V44.0263V43.9304V43.8346V43.7388V43.643V43.5471V43.4513V43.3395V43.2437V43.1479V43.052V42.9562V42.8604V42.7646V42.6687V42.5729V42.4851V42.3893V42.2934V42.1976V42.1018V42.006V41.9101V41.8223V41.7265V41.6307V41.5348V41.439V41.3432V41.2474V41.1515V41.0557V40.9599V40.8641V40.7682V40.6724V40.5766V40.4808V40.3849V40.2891V40.1933V40.0975V40.0016V39.9058V39.81V39.7142V39.6183V39.5225V39.4267V39.3309V39.235V39.1392V39.0514V38.9556V38.8677V38.7719V38.6761V38.5802V38.4844V38.3886V38.2928V38.197V38.1011V38.0053V37.9095V37.8137V37.7178V37.622V37.5262V37.4304V37.3345H24.0977H24.1935H24.2813H24.3772H24.473H24.5688H24.6567H24.7525H24.8483H24.9441H25.032H25.1278H25.2236H25.3194H25.4073H25.5031H25.5989H25.6948H25.7826H25.8784H25.9742L26.0222 37.4144L26.0701 37.5022L26.126 37.5741L26.1739 37.6619L26.2218 37.7418L26.2697 37.8296L26.3176 37.9015L26.3735 37.9893L26.4214 38.0692L26.4693 38.149L26.5172 38.2369L26.5652 38.3167L26.6211 38.4046L26.669 38.4844L26.7169 38.5723L26.7648 38.6521L26.8207 38.732L26.8686 38.8198L26.9165 38.8997L26.9644 38.9875L27.0123 39.0674L27.0682 39.1552L27.1161 39.235L27.1641 39.3229L27.212 39.3948L27.2599 39.4746L27.3158 39.5624L27.3637 39.6423L27.4116 39.7301L27.4595 39.802L27.5074 39.8898L27.5633 39.9697L27.5873 40.0016ZM17.7972 8.74697H23.2912C26.134 8.74697 27.5394 10.1604 27.5394 13.0191V19.1279C27.5394 21.9867 26.134 23.4001 23.2912 23.4001H21.2948V31.7448H17.7972V8.74697ZM8.26273 8.74697H16.0405V11.9331H11.7603V18.4332H15.8808V21.6194H11.7603V28.5506H16.1043V31.7368H8.26273V8.74697ZM14.8826 40.337V40.4328V40.5287V40.6165V40.7123V40.8082V40.904V40.9998V41.0956V41.1835V41.2793V41.3751V41.4709V41.5668V41.6626V41.7584V41.8463V41.9421V42.0379V42.1337V42.2296V42.3254V42.4212V42.509V42.6049V42.7007V42.7965V42.8923V42.9882V43.076V43.1718V43.2676V43.3635L14.8187 43.4194L14.7389 43.4753L14.675 43.5232L14.5951 43.5791L14.5232 43.627L14.4514 43.6829L14.3715 43.7308L14.2997 43.7787L14.2118 43.8266L14.124 43.8745L14.0361 43.9224L13.9483 43.9624L13.8605 44.0103L13.7646 44.0502L13.6768 44.0901L13.581 44.1301L13.4931 44.17L13.4053 44.2019L13.3175 44.2339L13.2296 44.2658L13.1338 44.2978L13.046 44.3297L12.9501 44.3457L12.8623 44.3616L12.7665 44.3776L12.6706 44.3936L12.5748 44.4016L12.471 44.4096L12.3752 44.4175L12.2714 44.4255L12.1756 44.4335L12.0717 44.4415H11.9679H11.8641H11.7603H11.6645L11.5687 44.4335L11.4649 44.4255L11.369 44.4175L11.2732 44.4096L11.1774 44.4016L11.0816 44.3856L10.9857 44.3696L10.8979 44.3537L10.8021 44.3377L10.7142 44.3057L10.6184 44.2898L10.5306 44.2578L10.4427 44.2179L10.3549 44.186L10.2591 44.146L10.1712 44.1061L10.0834 44.0662L9.99555 44.0263L9.90771 43.9783L9.83584 43.9304L9.74801 43.8825L9.66815 43.8346L9.59628 43.7867L9.51643 43.7308L9.44456 43.6749L9.36471 43.619L9.30083 43.5631L9.23694 43.5072L9.17306 43.4433L9.10918 43.3874L9.0453 43.3235L8.98141 43.2597L8.92552 43.1958L8.86962 43.1159L8.81372 43.052L8.76581 42.9722L8.70991 42.8923L8.662 42.8125L8.61409 42.7326L8.56617 42.6448L8.51826 42.5649L8.47833 42.4771L8.43841 42.3893L8.39848 42.3014L8.35855 42.2136L8.32661 42.1337L8.28669 42.0459L8.27072 41.9581L8.23877 41.8702L8.2228 41.7744L8.19086 41.6866L8.17489 41.5907L8.16691 41.5029L8.15094 41.4071L8.14295 41.3192L8.13496 41.2234L8.12698 41.1276L8.11899 41.0317V40.9279V40.8321V40.8161V40.7203L8.12698 40.6165V40.5207L8.13496 40.4249L8.14295 40.3211L8.15892 40.2252L8.16691 40.1294L8.18288 40.0416L8.21482 39.9457L8.23079 39.8499L8.26273 39.7621L8.29467 39.6663L8.32661 39.5784L8.36654 39.4826L8.40647 39.3948L8.44639 39.3069L8.48632 39.2191L8.52625 39.1312L8.57416 39.0434L8.62207 38.9635L8.66998 38.8837L8.7179 38.8038L8.76581 38.724L8.8217 38.6441L8.8776 38.5643L8.9335 38.4844L8.9894 38.4205L9.05328 38.3567L9.10918 38.2928L9.17306 38.2289L9.23694 38.165L9.30083 38.1091L9.38068 38.0452L9.44456 37.9893L9.51643 37.9334L9.59628 37.8855L9.66815 37.8296L9.74801 37.7817L9.81987 37.7338L9.90771 37.6859L9.99555 37.638L10.0834 37.5901L10.1712 37.5501L10.2591 37.5102L10.3549 37.4623L10.4268 37.4304L10.5226 37.3984L10.6104 37.3585L10.6983 37.3425L10.7861 37.3106L10.8819 37.2946L10.9698 37.2627L11.0656 37.2467L11.1614 37.2387L11.2572 37.2227L11.3531 37.2148L11.4489 37.2068L11.5447 37.1988L11.6405 37.1908H11.7443H11.8402H11.944H12.0478L12.1516 37.1988L12.2554 37.2068H12.3512L12.4471 37.2148L12.5509 37.2307L12.6387 37.2387L12.7345 37.2547L12.8304 37.2706L12.9182 37.2866L13.006 37.3026L13.0939 37.3186L13.1817 37.3505L13.2695 37.3665L13.3414 37.3984L13.4293 37.4304L13.5171 37.4703L13.6049 37.5102L13.6928 37.5501L13.7806 37.598L13.8684 37.638L13.9483 37.6859L14.0361 37.7338L14.108 37.7817L14.1958 37.8296L14.2677 37.8855L14.3396 37.9334L14.4194 37.9893L14.4913 38.0452L14.5712 38.1091L14.643 38.165L14.5871 38.2449L14.5232 38.3087L14.4673 38.3886L14.4035 38.4685L14.3476 38.5483L14.2917 38.6122L14.2278 38.692L14.1719 38.7719L14.116 38.8358L14.0521 38.9156L13.9962 38.9955L13.9323 39.0753L13.8764 39.1392L13.8205 39.2191L13.7567 39.2989L13.7008 39.3788L13.6369 39.4427L13.581 39.5225L13.5011 39.4666L13.4293 39.4027L13.3494 39.3548L13.2775 39.2989L13.2057 39.251L13.1258 39.2031L13.046 39.1552L12.9342 39.1073L12.8543 39.0674L12.7824 39.0274L12.7026 38.9955L12.6147 38.9635L12.5349 38.9476L12.4471 38.9316L12.3512 38.9156L12.2554 38.8997L12.1596 38.8917L12.0558 38.8677L11.952 38.8597H11.8482H11.7523L11.6565 38.8677L11.5687 38.8757L11.4728 38.8917L11.385 38.9076L11.2972 38.9396L11.2093 38.9715L11.1215 39.0115L11.0336 39.0514L10.9538 39.0993L10.8819 39.1472L10.8021 39.1951L10.7382 39.251L10.6743 39.3069L10.6104 39.3628L10.5545 39.4267L10.4906 39.4906L10.4347 39.5704L10.3868 39.6343L10.3389 39.7142L10.291 39.802L10.2431 39.8819L10.2032 39.9697L10.1712 40.0575L10.1313 40.1454L10.0994 40.2412L10.0834 40.337L10.0674 40.4249L10.0514 40.5287L10.0435 40.6245L10.0355 40.7203V40.8241V40.8401V40.9359L10.0435 41.0317L10.0514 41.1196L10.0594 41.2154L10.0754 41.3033L10.0914 41.3911L10.1073 41.4789L10.1393 41.5668L10.1712 41.6466L10.2112 41.7424L10.2511 41.8303L10.299 41.9181L10.3469 41.998L10.3948 42.0778L10.4507 42.1577L10.5066 42.2216L10.5705 42.2854L10.6264 42.3493L10.6903 42.4052L10.7701 42.4611L10.842 42.517L10.9139 42.5649L10.9937 42.6129L11.0816 42.6528L11.1694 42.6927L11.2572 42.7326L11.3531 42.7646L11.4489 42.7965L11.5447 42.8125L11.6405 42.8285L11.7364 42.8364L11.8402 42.8444H11.944H12.0558L12.1596 42.8364L12.2634 42.8285L12.3592 42.8205L12.455 42.8045L12.5509 42.7885L12.6467 42.7566L12.7345 42.7406L12.8224 42.7007L12.9022 42.6608L12.9901 42.6208L13.0539 42.5809L13.1338 42.533V42.4372V42.3414V42.2216V42.1257V42.0219V41.9261V41.8303V41.7345V41.6386H13.038H12.9501H12.8543H12.7585H12.6627H12.5748H12.479H12.3832H12.2953H12.2075H12.1117H12.0158H11.92H11.8322H11.7364V41.5428V41.455V41.3591V41.2633V41.1675V41.0797V40.9838V40.888V40.7922V40.7044V40.6085V40.5127V40.4169V40.329V40.2332H11.8322H11.928H12.0238H12.1197H12.2155H12.3113H12.4071H12.503H12.5988H12.6946H12.7904H12.8862H12.9821H13.0779H13.1737H13.2695H13.3654H13.4612H13.557H13.6528H13.7487H13.8445H13.9403H14.0361H14.132H14.2278H14.3236H14.4194H14.5153H14.6111H14.7069H14.8027H14.8986V40.337H14.8826ZM16.3519 44.2898H16.2561H16.1602H16.0644H15.9686H15.8728H15.7769H15.6811H15.5853L15.6252 44.2019L15.6652 44.1141L15.7051 44.0263L15.745 43.9304L15.7769 43.8426L15.8169 43.7548L15.8568 43.6669L15.8967 43.5791L15.9367 43.4912L15.9766 43.3954L16.0165 43.3076L16.0564 43.2197L16.0884 43.1319L16.1283 43.0441L16.1682 42.9562L16.2082 42.8604L16.2481 42.7726L16.288 42.6847L16.3279 42.5969L16.3679 42.509L16.3998 42.4212L16.4397 42.3254L16.4797 42.2375L16.5196 42.1497L16.5595 42.0619L16.5994 41.974L16.6394 41.8862L16.6793 41.7904L16.7112 41.7025L16.7512 41.6147L16.7911 41.5268L16.831 41.439L16.8709 41.3512L16.9109 41.2553L16.9508 41.1675L16.9907 41.0797L17.0227 40.9918L17.0626 40.904L17.1025 40.8161L17.1424 40.7203L17.1824 40.6325L17.2223 40.5446L17.2622 40.4568L17.3021 40.369L17.3341 40.2811L17.374 40.1933L17.4139 40.0975L17.4539 40.0096L17.4938 39.9218L17.5337 39.834L17.5737 39.7461L17.6136 39.6583L17.6455 39.5624L17.6854 39.4746L17.7254 39.3868L17.7653 39.2989L17.8052 39.2111L17.8452 39.1233L17.8851 39.0274L17.925 38.9396L17.9569 38.8517L17.9969 38.7639L18.0368 38.6761L18.0767 38.5882L18.1167 38.4924L18.1566 38.4046L18.1965 38.3167L18.2364 38.2289L18.2684 38.1411L18.3083 38.0532L18.3482 37.9574L18.3882 37.8696L18.4281 37.7817L18.468 37.6939L18.5079 37.606L18.5479 37.5182L18.5798 37.4224L18.6197 37.3345L18.6597 37.2467L18.6996 37.1589H18.7954H18.8832H18.9791H19.0749H19.1707H19.2586H19.3544H19.4502H19.546H19.6339H19.7297H19.8255H19.9213H20.0092H20.105H20.2008H20.2967H20.3845H20.4803L20.5202 37.2467L20.5602 37.3345L20.6001 37.4224L20.64 37.5182L20.672 37.606L20.7119 37.6939L20.7518 37.7817L20.7917 37.8696L20.8317 37.9574L20.8716 38.0532L20.9115 38.1411L20.9515 38.2289L20.9834 38.3167L21.0233 38.4046L21.0633 38.4924L21.1032 38.5882L21.1431 38.6761L21.183 38.7639L21.223 38.8517L21.2629 38.9396L21.2948 39.0274L21.3348 39.1233L21.3747 39.2111L21.4146 39.2989L21.4545 39.3868L21.4945 39.4746L21.5344 39.5624L21.5743 39.6583L21.6063 39.7461L21.6462 39.834L21.6861 39.9218L21.726 40.0096L21.766 40.0975L21.8059 40.1933L21.8458 40.2811L21.8857 40.369L21.9177 40.4568L21.9576 40.5446L21.9975 40.6325L22.0375 40.7203L22.0774 40.8161L22.1173 40.904L22.1572 40.9918L22.1972 41.0797L22.2291 41.1675L22.269 41.2553L22.309 41.3512L22.3489 41.439L22.3888 41.5268L22.4287 41.6147L22.4687 41.7025L22.5086 41.7904L22.5405 41.8862L22.5805 41.974L22.6204 42.0619L22.6603 42.1497L22.7002 42.2375L22.7402 42.3254L22.7801 42.4212L22.82 42.509L22.852 42.5969L22.8919 42.6847L22.9318 42.7726L22.9718 42.8604L23.0117 42.9562L23.0516 43.0441L23.0915 43.1319L23.1315 43.2197L23.1634 43.3076L23.2033 43.3954L23.2433 43.4912L23.2832 43.5791L23.3231 43.6669L23.363 43.7548L23.403 43.8426L23.4429 43.9304L23.4748 44.0263L23.5148 44.1141L23.5547 44.2019L23.5946 44.2898H23.4988H23.403H23.3151H23.2193H23.1235H22.6763H22.5805H22.4926H22.3968H22.301H22.2052H22.1173H22.0215H21.9337H21.8378H21.742H21.6462H21.5504H21.4625H21.3667H21.2709L21.2309 44.2019L21.199 44.1141L21.1591 44.0263L21.1191 43.9304L21.0872 43.8426L21.0473 43.7548L21.0074 43.6669L20.9754 43.5791L20.9355 43.4912L20.8956 43.4034L20.8636 43.3156L20.8237 43.2197L20.7838 43.1319L20.7518 43.0441L20.7119 42.9562H20.6161H20.5202H20.4244H20.3286H20.2408H20.1449H20.0491H19.9533H19.8575H19.7616H19.7217H19.6259H19.5301H19.4342H19.3464H19.2506H19.1548H19.0589H18.9631H18.8673H18.7715H18.6836H18.5878H18.492H18.4041H18.3083H18.2125H18.1246H18.0288L17.9889 43.0441L17.9569 43.1319L17.917 43.2197L17.8851 43.3395L17.8531 43.4274L17.8132 43.5152L17.7733 43.603L17.7413 43.6909L17.7014 43.7787L17.6615 43.8666L17.6295 43.9544L17.5896 44.0502L17.5497 44.1381L17.5178 44.2259L17.4778 44.3137H17.406H17.3101H17.2143H17.1185H17.0227H16.9268H16.831H16.7352H16.6394H16.5435H16.4477H16.3519V44.2898ZM26.3176 55.9005L16.5116 52.5307H36.5309L26.3176 55.9005ZM38.2238 42.8125V42.9003V42.9961V43.092V43.1878V43.2756V43.3715V43.4673V43.5551V43.6509V43.7468V43.8346V43.9304V44.0263V44.1221V44.2099V44.3057H38.1279H38.0321H37.9363H37.8405H37.7447H37.6488H37.553H37.4572H37.3614H37.2575H37.1617H37.0659H36.9701H36.8742H36.7784H36.6826H36.5868H36.491H36.3951H36.2993H36.2035H36.1077H36.0118H35.932H35.8362H35.7403H35.6445H35.5487H35.4529H35.349H35.2532H35.1574H35.0616H34.9737H34.8779H34.7821H34.6863H34.5904H34.4946H34.3988H34.303H34.2071H34.1113H34.0155H33.9197H33.8238H33.728H33.6322H33.5364H33.4405H33.3447H33.2489H33.1531H33.0573H32.9614H32.8656H32.7698H32.674V44.2099V44.1141V44.0183V43.9224V43.8266V43.7308V43.635V43.5392V43.4433V43.3395V43.2437V43.1479V43.052V42.9562V42.8604V42.7646V42.6687V42.5729V42.4851V42.3893V42.2934V42.1976V42.1018V42.006V41.9101V41.8223V41.7265V41.6307V41.5348V41.439V41.3432V41.2474V41.1515V41.0557V40.9599V40.8641V40.7682V40.6724V40.5766V40.4808V40.3849V40.2891V40.1933V40.0975V40.0016V39.9058V39.81V39.7142V39.6183V39.5225V39.4267V39.3309V39.235V39.1392V39.0514V38.9556V38.8677V38.7719V38.6761V38.5802V38.4844V38.3886V38.2928V38.197V38.1011V38.0053V37.9095V37.8137V37.7178V37.622V37.5262V37.4304V37.3345H32.7698H32.8656H32.9614H33.0573H33.1531H33.2489H33.3447H33.4405H33.5364H33.6322H33.728H33.8238H33.9197H34.0155H34.1033H34.1992H34.295H34.3908H34.4866H34.5825H34.6783H34.7741H34.8699H34.9657H35.0616H35.1574H35.2532H35.349H35.4449H35.5407H35.6365H35.7323H35.8282H35.924H36.0198H36.1156H36.2115H36.3073H36.4031H36.4989H36.5948H36.6906H36.7864H36.8742H36.9701H37.0659H37.1617H37.2575H37.3534H37.4492H37.545H37.6408H37.7367H37.8325H37.9283H38.0241H38.12H38.2158V37.4304V37.5182V37.614V37.7098V37.8057V37.8935V37.9893V38.0852V38.173V38.2688V38.3646V38.4525V38.5483V38.6441V38.74V38.8278V38.9236H38.12H38.0241H37.9283H37.8325H37.7367H37.6408H37.553H37.4572H37.3614H37.2655H37.1697H37.0739H36.9781H36.8822H36.7864H36.6906H36.5948H36.4989H36.4031H36.3153H36.2195H36.1236H36.0278H35.932H35.8362H35.7403H35.6445H35.5327H35.4369H35.3411H35.2452H35.1494H35.0616H34.9737H34.8779H34.7821H34.6863H34.5904H34.4946V39.0194V39.1153V39.2111V39.3069V39.4027V39.4906V39.5864V39.6822V39.778V39.8739V39.9697V40.0655H34.5904H34.6863H34.7821H34.8779H34.9737H35.0696H35.1654H35.2612H35.349H35.4449H35.5407H35.6365H35.7323H35.8282H35.924H36.0198H36.1156H36.2115H36.3073H36.4031H36.4989H36.5948H36.6906H36.7864H36.8822H36.9781H37.0659H37.1617H37.2575H37.3534H37.4492H37.545H37.6408H37.7367H37.8325V40.1614V40.2492V40.345V40.4408V40.5287V40.6245V40.7203V40.8082V40.904V40.9998V41.0956V41.1835V41.2793V41.3751V41.463V41.5588H37.7367H37.6089H37.5131H37.4173H37.3214H37.2256H37.1298H37.034H36.9461H36.8503H36.7545H36.6586H36.5628H36.467H36.3712H36.2753H36.1795H36.0837H35.9879H35.8921H35.7962H35.7004H35.6046H35.5327H35.4369H35.3411H35.2532H35.1574H35.0616H34.9737H34.8779H34.7821H34.6863H34.5904H34.4946V41.6546V41.7584V41.8542V41.9501V42.0539V42.1497V42.2455V42.3493V42.4452V42.541V42.6448V42.7406H34.5904H34.6863H34.7821H34.8779H34.9737H35.0696H35.1654H35.2612H35.357H35.4608H35.5567H35.6525H35.7483H35.8441H35.94H36.0358H36.1316H36.2274H36.3233H36.4191H36.5149H36.6107H36.7066H36.8024H36.8982H36.994H37.0899H37.1857H37.2815H37.3853H37.4811H37.577H37.6728H37.7686H37.8644H37.9603H38.0561H38.1519H38.2477V42.8125H38.2238ZM34.4627 27.6643V12.8195C34.4627 9.96074 35.8681 8.54734 38.7109 8.54734H40.4118C43.2545 8.54734 44.628 9.9288 44.628 12.7876V17.4829H41.1943V12.9792C41.1943 12.0609 40.7711 11.6297 39.8847 11.6297H39.2938C38.3755 11.6297 37.9523 12.0529 37.9523 12.9792V27.4966C37.9523 28.4149 38.3755 28.8461 39.2938 28.8461H39.9486C40.827 28.8461 41.2582 28.4229 41.2582 27.4966V22.3061H44.6919V27.6563C44.6919 30.515 43.2865 31.9284 40.4437 31.9284H38.7109C35.8681 31.9364 34.4627 30.523 34.4627 27.6643ZM44.7957 42.1497V42.1657V42.2695L44.7877 42.3733L44.7797 42.4691L44.7718 42.5729L44.7558 42.6687L44.7239 42.7646L44.7079 42.8524L44.6759 42.9482L44.636 43.0361L44.5961 43.1159L44.5562 43.2038L44.5082 43.2836L44.4603 43.3635L44.4044 43.4433L44.3565 43.5232L44.3006 43.5871L44.2367 43.6509L44.1808 43.7068L44.101 43.7707L44.0371 43.8266L43.9573 43.8825L43.8854 43.9304L43.8135 43.9863L43.7257 44.0342L43.6378 44.0742L43.55 44.1221L43.4542 44.162L43.3584 44.2019L43.2625 44.2339L43.1667 44.2658L43.0789 44.2978L42.983 44.3137L42.8952 44.3297L42.8074 44.3457L42.7115 44.3616L42.6157 44.3696L42.5279 44.3776L42.4321 44.3856L42.3282 44.3936L42.2324 44.4016H42.1606H42.0567H41.9529H41.8571L41.7613 44.3936H41.6575L41.5617 44.3856L41.4658 44.3776L41.362 44.3696L41.2662 44.3537L41.1704 44.3457L41.0745 44.3297L40.9787 44.3137L40.8829 44.2978L40.7871 44.2818L40.6912 44.2499L40.6034 44.2339L40.5076 44.2019L40.4118 44.17L40.3239 44.1301L40.2281 44.0981L40.1403 44.0662L40.0444 44.0263L39.9566 43.9863L39.8688 43.9464L39.7809 43.8985L39.6931 43.8586L39.6052 43.8107L39.5334 43.7627L39.4455 43.7148L39.3737 43.6669L39.2938 43.619L39.2219 43.5631L39.1501 43.5072L39.0702 43.4513L38.9904 43.3954L38.9265 43.3395L38.8546 43.2756L38.9105 43.1958L38.9744 43.1319L39.0303 43.052L39.0942 42.9722L39.1501 42.9083L39.206 42.8285L39.2699 42.7486L39.3258 42.6847L39.3896 42.6049L39.4455 42.541L39.5094 42.4611L39.5653 42.3813L39.6212 42.3174L39.6851 42.2375L39.741 42.1577L39.8049 42.0938L39.8608 42.014L39.9326 42.0698L40.0205 42.1257L40.1003 42.1816L40.1882 42.2375L40.268 42.2854L40.3559 42.3414L40.4277 42.3893L40.5156 42.4292L40.5874 42.4771L40.6753 42.517L40.7631 42.557L40.851 42.5969L40.9388 42.6288L41.0266 42.6687L41.1225 42.7007L41.2183 42.7326L41.3061 42.7646L41.4019 42.7805L41.4978 42.7965L41.5936 42.8125L41.6974 42.8205L41.7932 42.8364H41.889L41.9929 42.8444H42.0887H42.2005L42.3043 42.8364L42.4001 42.8205L42.4879 42.8045L42.5758 42.7885L42.6556 42.7566L42.7195 42.7167L42.7994 42.6608L42.8553 42.5969L42.8952 42.517L42.9271 42.4292L42.9351 42.3334V42.3174L42.9271 42.2056L42.8872 42.1098L42.8393 42.0459L42.7754 41.99L42.6956 41.9341L42.6237 41.8942L42.5359 41.8542L42.44 41.8143L42.3282 41.7664L42.2644 41.7504L42.1925 41.7345L42.1047 41.7025L42.0168 41.6866L41.921 41.6546L41.8252 41.6386L41.7214 41.6067L41.6255 41.5907L41.5217 41.5588L41.4259 41.5428L41.3301 41.5109L41.2343 41.4949L41.1384 41.463L41.0506 41.431L40.9548 41.415L40.8669 41.3831L40.7791 41.3512L40.6912 41.3192L40.5874 41.2793L40.4916 41.2394L40.3958 41.1994L40.3239 41.1835L40.2361 41.1356L40.1403 41.0876L40.0604 41.0397L39.9726 40.9918L39.9007 40.9359L39.8208 40.888L39.757 40.8321L39.6931 40.7682L39.6292 40.7044L39.5733 40.6405L39.5174 40.5766L39.4695 40.5127L39.4216 40.4328L39.3737 40.345L39.3337 40.2811L39.3018 40.2013L39.2699 40.1134L39.2379 40.0336L39.2219 39.9378L39.206 39.8499L39.198 39.7541L39.19 39.6583L39.182 39.5545V39.4506V39.4267V39.3309L39.19 39.235L39.198 39.1472L39.206 39.0514L39.2219 38.9635L39.2379 38.8757L39.2699 38.7879L39.2858 38.7L39.3258 38.6122L39.3657 38.5244L39.4056 38.4365L39.4535 38.3487L39.5014 38.2608L39.5573 38.181L39.6132 38.1011L39.6771 38.0213L39.741 37.9574L39.8049 37.8775L39.8847 37.8137L39.9486 37.7657L40.0285 37.7098L40.1083 37.6539L40.1802 37.606L40.268 37.5581L40.3559 37.5182L40.4437 37.4703L40.5315 37.4304L40.6274 37.3984L40.7232 37.3585L40.811 37.3265L40.8829 37.3106L40.9707 37.2946L41.0586 37.2786L41.1544 37.2627L41.2422 37.2467L41.3381 37.2387L41.4339 37.2307L41.5297 37.2227L41.6255 37.2148H41.7214H41.8252H41.929H42.0328L42.1366 37.2227L42.2404 37.2307H42.3362L42.44 37.2387L42.5359 37.2547L42.6397 37.2627L42.7355 37.2786L42.8233 37.2946L42.9192 37.3106L43.015 37.3265L43.1028 37.3425L43.1987 37.3745L43.2865 37.4064L43.3743 37.4224L43.4702 37.4623L43.558 37.4942L43.6458 37.5342L43.7337 37.5741L43.8295 37.614L43.9173 37.6619L43.9892 37.7019L44.077 37.7498L44.1649 37.7977L44.2367 37.8456L44.3246 37.9015L44.4044 37.9494L44.4843 38.0053L44.5562 38.0612L44.628 38.1171L44.5721 38.197L44.5242 38.2768L44.4683 38.3567L44.4124 38.4365L44.3565 38.5244L44.3086 38.6042L44.2527 38.6841L44.1968 38.7639L44.1489 38.8438L44.093 38.9236L44.0371 39.0035L43.9892 39.0833L43.9333 39.1712L43.8774 39.251L43.8215 39.3309L43.7736 39.4107L43.7177 39.4906L43.6378 39.4347L43.55 39.3868L43.4702 39.3389L43.3903 39.283L43.3025 39.243L43.2226 39.1951L43.1348 39.1552L43.0629 39.1153L42.9751 39.0753L42.9032 39.0354L42.8154 39.0035L42.7355 38.9635L42.6317 38.9316L42.5359 38.8997L42.44 38.8677L42.3442 38.8517L42.2484 38.8358L42.1526 38.8198L42.0567 38.8118L41.9609 38.8038L41.8731 38.7959H41.7773H41.6655L41.5617 38.8118L41.4658 38.8278L41.378 38.8438L41.3061 38.8837L41.2422 38.9236L41.1544 39.0035L41.0985 39.0913L41.0586 39.1791L41.0506 39.275V39.2909L41.0586 39.4187L41.1065 39.5225L41.1464 39.5784L41.2103 39.6423L41.2981 39.6902L41.37 39.7381L41.4658 39.778L41.5696 39.818L41.6814 39.8579L41.7533 39.8739L41.8252 39.9058L41.913 39.9218L42.0008 39.9537L42.0967 39.9697L42.2005 40.0016L42.3043 40.0336L42.4081 40.0655L42.5119 40.0815L42.6077 40.1134L42.7115 40.1454L42.8074 40.1614L42.9032 40.1933L42.999 40.2252L43.0869 40.2572L43.1827 40.2891L43.2705 40.3211L43.3584 40.353L43.4622 40.3929L43.558 40.4408L43.6538 40.4808L43.7496 40.5287L43.8375 40.5766L43.9253 40.6245L43.9972 40.6724L44.077 40.7283L44.1569 40.7762L44.2288 40.8401L44.3086 40.904L44.3725 40.9838L44.4364 41.0477L44.4923 41.1276L44.5482 41.2154L44.5961 41.2953L44.644 41.3831L44.6839 41.463L44.7159 41.5508L44.7478 41.6386L44.7638 41.7265L44.7797 41.8223L44.7957 41.9181L44.8037 42.014L44.8117 42.1178V42.1497H44.7957Z" fill="white"/>
<path d="M18.7794 41.5109H18.8752H18.9711H19.0589H19.1547H19.2506H19.3464H19.4342H19.53H19.6259H19.7217H19.8175H19.9054H20.0012H20.097H20.1928L20.1529 41.431L20.1289 41.3432L20.089 41.2474L20.0491 41.1595L20.0251 41.0717L19.9852 40.9839L19.9453 40.896L19.9213 40.8082L19.8814 40.7203L19.8415 40.6325L19.8175 40.5447L19.7776 40.4488L19.7456 40.369L19.7057 40.2811L19.6738 40.1933L19.6418 40.1055L19.6019 40.0096L19.57 39.9298L19.538 39.8419L19.4981 39.7541L19.4582 39.6583L19.4342 39.5704L19.3943 39.4826L19.3544 39.5704L19.3304 39.6583L19.2905 39.7541L19.2506 39.8419L19.2266 39.9298L19.1867 40.0096L19.1467 40.1055L19.1068 40.1933L19.0829 40.2811L19.0429 40.369L19.003 40.4488L18.9791 40.5447L18.9391 40.6325L18.8992 40.7203L18.8752 40.8082L18.8353 40.896L18.7954 40.9839L18.7555 41.0717L18.7315 41.1595L18.6916 41.2474L18.6517 41.3432L18.6277 41.431L18.5878 41.5109H18.6836H18.7794Z" fill="white"/>
</g>
</g>
</g>
<defs>
<clipPath id="clip0_6_42">
<rect width="51.69" height="59.97" fill="white" transform="translate(0.632324 0.777588)"/>
</clipPath>
<clipPath id="clip1_6_42">
<rect width="51.69" height="59.97" fill="white" transform="translate(0.632324 0.777588)"/>
</clipPath>
<clipPath id="clip2_6_42">
<rect width="51.6812" height="59.97" fill="white" transform="translate(0.636719 0.777588)"/>
</clipPath>
</defs>
</svg>
