<svg width="121" height="33" viewBox="0 0 121 33" fill="none" xmlns="http://www.w3.org/2000/svg">
<g clip-path="url(#clip0_6_59)">
<g clip-path="url(#clip1_6_59)">
<g clip-path="url(#clip2_6_59)">
<path fill-rule="evenodd" clip-rule="evenodd" d="M70.7194 25.7471C64.5837 30.2838 55.6591 32.7009 47.9616 32.7009C37.1776 32.7009 27.5092 28.722 20.1464 22.1029C19.5886 21.5823 20.072 20.8757 20.7786 21.2848C28.6992 25.8958 38.4791 28.6476 48.5937 28.6476C55.3988 28.6476 62.9103 27.2345 69.827 24.2968C70.8682 23.8878 71.7234 25.0034 70.7194 25.7471ZM73.2853 22.8094C72.5044 21.8054 68.0792 22.326 66.1083 22.5863C65.5134 22.6607 65.4018 22.14 65.9596 21.7682C69.4923 19.2767 75.2561 20.0204 75.9255 20.8385C76.5948 21.6566 75.7395 27.4577 72.43 30.2094C71.9094 30.6185 71.4259 30.3954 71.6491 29.8376C72.3928 27.9783 74.0662 23.8506 73.2853 22.8094ZM66.2199 4.29074V1.87365C66.2199 1.50179 66.4802 1.27867 66.8149 1.27867H77.5988C77.9335 1.27867 78.231 1.53898 78.231 1.87365V3.91888C78.231 4.25356 77.9335 4.69979 77.4129 5.44351L71.835 13.4013C73.9174 13.3641 76.1114 13.6616 77.9707 14.7028C78.3797 14.926 78.4913 15.2978 78.5285 15.6325V18.1983C78.5285 18.5702 78.1566 18.9792 77.7476 18.7561C74.438 17.0084 70.0129 16.8224 66.3687 18.7933C65.9968 18.9792 65.5877 18.6074 65.5877 18.2355V15.7812C65.5877 15.4094 65.5877 14.74 65.9968 14.145L72.4672 4.88572H66.8521C66.5174 4.88572 66.2199 4.62542 66.2199 4.29074ZM26.9143 19.2767H23.6419C23.3444 19.2395 23.0841 19.0164 23.0469 18.7189V1.91084C23.0469 1.57616 23.3444 1.31586 23.6791 1.31586H26.7283C27.063 1.31586 27.2861 1.57616 27.3233 1.87365V4.06763H27.3977C28.1786 1.94802 29.7032 0.943999 31.7113 0.943999C33.7565 0.943999 35.058 1.94802 35.9505 4.06763C36.7314 1.94802 38.5535 0.943999 40.4872 0.943999C41.863 0.943999 43.3505 1.50179 44.2801 2.8033C45.3214 4.21637 45.0982 6.26161 45.0982 8.08372V18.7189C45.0982 19.0536 44.8007 19.3139 44.4661 19.3139H41.2309C40.8962 19.2767 40.6359 19.0164 40.6359 18.7189V9.79427C40.6359 9.08774 40.7103 7.30281 40.5615 6.63346C40.3012 5.51788 39.5947 5.18321 38.6279 5.18321C37.847 5.18321 36.9917 5.70382 36.657 6.55909C36.3223 7.41437 36.3595 8.82744 36.3595 9.79427V18.7189C36.3595 19.0536 36.062 19.3139 35.7273 19.3139H32.455C32.1203 19.2767 31.86 19.0164 31.86 18.7189V9.79427C31.86 7.93497 32.1575 5.14602 29.852 5.14602C27.5092 5.14602 27.5836 7.82341 27.5836 9.79427V18.7189C27.5464 19.0164 27.2861 19.2767 26.9143 19.2767ZM87.5275 0.943999C92.3989 0.943999 95.0391 5.10884 95.0391 10.4264C95.0391 15.5581 92.1386 19.6486 87.5275 19.6486C82.7677 19.6486 80.1647 15.4837 80.1647 10.2777C80.1275 5.03447 82.7677 0.943999 87.5275 0.943999ZM87.5275 4.4023C85.1104 4.4023 84.9617 7.71186 84.9617 9.7571C84.9617 11.8023 84.9245 16.1903 87.4903 16.1903C90.019 16.1903 90.1677 12.6576 90.1677 10.5008C90.1677 9.08775 90.0933 7.37719 89.6843 6.03849C89.3124 4.84854 88.5687 4.4023 87.5275 4.4023ZM101.324 19.2767H98.0512C97.7165 19.2395 97.4562 18.9792 97.4562 18.6817V1.83646C97.4768 1.68297 97.552 1.54206 97.6682 1.43959C97.7843 1.33712 97.9335 1.27998 98.0883 1.27867H101.138C101.435 1.27867 101.658 1.50179 101.733 1.7621V4.32793H101.807C102.737 2.0224 104.001 0.943999 106.269 0.943999C107.72 0.943999 109.17 1.4646 110.099 2.91486C110.955 4.25355 110.955 6.5219 110.955 8.15809V18.7561C110.918 19.0536 110.657 19.2767 110.323 19.2767H107.05C106.753 19.2395 106.492 19.0164 106.455 18.7561V9.60834C106.455 7.74904 106.678 5.07165 104.41 5.07165C103.629 5.07165 102.885 5.59226 102.513 6.41035C102.067 7.45156 101.993 8.45558 101.993 9.60834V18.6817C101.956 19.0164 101.658 19.2767 101.324 19.2767ZM57.6299 11.2445C57.6299 12.5089 57.6671 13.5873 57.035 14.74C56.5144 15.6697 55.6963 16.2275 54.7666 16.2275C53.5023 16.2275 52.7586 15.2606 52.7586 13.8476C52.7586 11.0586 55.25 10.538 57.6299 10.538V11.2445ZM60.9395 19.2395C60.7164 19.4255 60.4189 19.4626 60.1586 19.3139C59.0802 18.4214 58.8571 17.9752 58.2621 17.1199C56.4772 18.942 55.1756 19.4998 52.8701 19.4998C50.1183 19.4998 47.9616 17.7893 47.9616 14.4054C47.9616 11.728 49.4118 9.94302 51.457 9.05055C53.242 8.26965 55.7334 8.12091 57.6299 7.89779V7.48875C57.6299 6.70784 57.7043 5.77819 57.2209 5.10884C56.8118 4.51386 56.0681 4.25356 55.3988 4.25356C54.1344 4.25356 53.0189 4.88572 52.7586 6.22442C52.6842 6.52191 52.4983 6.81939 52.2008 6.81939L49.04 6.48472C48.7797 6.41035 48.4822 6.22442 48.5565 5.81537C49.3003 1.94803 52.7586 0.795258 55.8822 0.795258C57.4812 0.795258 59.5636 1.2043 60.8279 2.43144C62.4269 3.91888 62.2782 5.92693 62.2782 8.08372V13.1782C62.2782 14.7028 62.9103 15.3722 63.5053 16.2275C63.7284 16.525 63.7656 16.8968 63.5053 17.0827C62.7988 17.6405 61.6088 18.6817 60.9395 19.2395ZM14.68 11.2445C14.68 12.5089 14.7172 13.5873 14.0851 14.74C13.5645 15.6697 12.7464 16.2275 11.8167 16.2275C10.5524 16.2275 9.80867 15.2606 9.80867 13.8476C9.80867 11.0586 12.3001 10.538 14.68 10.538V11.2445ZM17.9524 19.2395C17.7293 19.4255 17.4318 19.4626 17.1715 19.3139C16.0931 18.4214 15.87 17.9752 15.275 17.1199C13.4901 18.942 12.1886 19.4998 9.88304 19.4998C7.13128 19.4998 4.97449 17.7893 4.97449 14.4054C4.97449 11.728 6.42474 9.94302 8.46997 9.05055C10.2549 8.26965 12.7464 8.12091 14.6429 7.89779V7.48875C14.6429 6.70784 14.7172 5.77819 14.2338 5.10884C13.8248 4.51386 13.081 4.25356 12.4117 4.25356C11.1474 4.25356 10.0318 4.88572 9.77149 6.22442C9.69711 6.52191 9.51118 6.81939 9.21369 6.81939L6.05288 6.48472C5.79258 6.41035 5.49509 6.22442 5.56947 5.81537C6.31319 1.94803 9.77149 0.795258 12.8951 0.795258C14.4941 0.795258 16.5765 1.2043 17.8409 2.43144C19.4399 3.91888 19.2911 5.92693 19.2911 8.08372V13.1782C19.2911 14.7028 19.9233 15.3722 20.5183 16.2275C20.7414 16.525 20.7786 16.8968 20.5183 17.0827C19.8117 17.6405 18.6218 18.6817 17.9524 19.2395Z" fill="white"/>
</g>
</g>
</g>
<defs>
<clipPath id="clip0_6_59">
<rect width="119.81" height="31.98" fill="white" transform="translate(0.662598 0.758057)"/>
</clipPath>
<clipPath id="clip1_6_59">
<rect width="119.81" height="31.98" fill="white" transform="translate(0.662598 0.758057)"/>
</clipPath>
<clipPath id="clip2_6_59">
<rect width="119.739" height="31.98" fill="white" transform="translate(0.69812 0.758057)"/>
</clipPath>
</defs>
</svg>
