<svg width="96" height="36" viewBox="0 0 96 36" fill="none" xmlns="http://www.w3.org/2000/svg">
<g clip-path="url(#clip0_6_32)">
<g clip-path="url(#clip1_6_32)">
<g clip-path="url(#clip2_6_32)">
<path d="M66.501 35.2579C65.5889 34.904 65.0586 34.27 64.9247 33.3736C64.8324 32.7541 64.9486 32.1128 65.2911 31.3533C65.7922 30.2399 66.583 29.2666 67.7793 28.2912C68.9228 27.3584 70.2292 26.7575 71.4702 26.2481C72.4145 25.86 73.3473 25.4273 74.2137 25.0164C74.3165 24.9676 74.4067 24.9189 74.4679 24.8172C74.6184 24.5702 74.771 24.3243 74.9348 24.0608L75.1351 23.737L75.0604 23.6623C74.884 23.7712 74.7128 23.8771 74.5448 23.9808C74.1784 24.208 73.8319 24.4218 73.4811 24.6356C73.0266 24.9116 72.5234 25.0517 71.987 25.0517C71.7099 25.0517 71.4172 25.0144 71.1174 24.9407C69.8007 24.6159 69.0546 23.4216 69.26 21.9688C69.4831 20.3927 70.2292 18.9711 71.6082 17.4946C73.1377 15.8562 74.9286 14.6908 76.9292 14.0309C77.7271 13.7674 78.3954 13.645 79.0315 13.645C79.2203 13.645 79.4092 13.6563 79.5928 13.6781C79.8896 13.7144 80.093 13.7964 80.2527 13.9448C80.3908 14.0724 80.4654 14.2229 80.4707 14.3807C80.4759 14.5362 80.4105 14.6898 80.2818 14.8237C80.0017 15.1184 79.6416 15.3155 79.2929 15.5064L79.2255 15.5438C78.8665 15.7409 78.4971 15.9329 78.1391 16.1187C77.4242 16.4891 76.6854 16.872 75.9964 17.3202C75.3147 17.7644 74.6121 18.278 74.0996 19.023C73.8723 19.3529 73.7281 19.7317 73.669 20.1488C73.6306 20.4249 73.6835 20.6604 73.8236 20.8295C73.9678 21.0039 74.1982 21.1035 74.4908 21.118C74.525 21.1201 74.5582 21.1201 74.5914 21.1201C75.1279 21.1201 75.6124 20.9095 76.1147 20.4581C76.7684 19.8708 77.2457 19.133 77.7075 18.4202C77.7604 18.3392 77.8123 18.2583 77.8651 18.1774C77.916 18.0995 77.9658 18.0228 78.0156 17.9449C78.4224 17.3161 78.8436 16.6655 79.3999 16.1373C79.8429 15.7171 80.2704 15.521 80.7446 15.521C80.7571 15.521 80.7685 15.521 80.7809 15.521C81.1648 15.5293 81.4917 15.6756 81.7013 15.9329C81.9088 16.1881 81.9856 16.5326 81.9172 16.9052C81.7667 17.7218 81.36 18.4471 80.9656 19.1485L80.8743 19.3115C80.6055 19.793 80.3161 20.2744 80.037 20.7403C79.8117 21.1149 79.5783 21.503 79.3553 21.8931L79.4309 21.9658C79.4807 21.9336 79.5317 21.9024 79.5814 21.8703C79.6893 21.8018 79.8014 21.7313 79.9104 21.6596C81.8424 20.3854 83.5981 18.9348 85.3756 17.4364C85.5676 17.2745 85.7585 17.1128 85.9505 16.9498C87.2236 15.8707 88.5398 14.7542 89.9748 13.841C90.7596 13.3409 91.7169 12.8055 92.8518 12.627C93.102 12.5876 93.3094 12.5689 93.5028 12.5689C93.6559 12.5689 93.7985 12.5803 93.9368 12.6041C94.5825 12.7162 94.978 13.1105 95.1478 13.8099V14.6628C95.027 15.0872 94.7286 15.3321 94.2106 15.4307L94.1135 15.4494C93.935 15.4825 93.7513 15.5179 93.5719 15.5645C92.9926 15.7161 92.6181 16.0907 92.4606 16.6748C92.3556 17.065 92.3434 17.4655 92.3399 17.8422C92.3382 18.1182 92.3504 18.3983 92.3618 18.6692C92.3845 19.1932 92.409 19.7358 92.3277 20.2661C92.0205 22.277 91.114 23.9861 89.6327 25.3443C88.4575 26.4235 87.2195 26.9485 85.8498 26.9485C85.5634 26.9485 85.2687 26.9247 84.972 26.8779C84.1045 26.7399 83.3833 26.3082 82.9423 25.6639C82.5055 25.0257 82.3654 24.208 82.547 23.3624C82.5771 23.2213 82.6124 23.0833 82.6529 22.9235C82.6726 22.8446 82.6933 22.7616 82.7151 22.6724L82.7493 22.5323L82.6311 22.6153C82.4754 22.7253 82.3249 22.8311 82.1786 22.9349C81.8683 23.1549 81.5747 23.3624 81.279 23.5658L81.2572 23.5803C79.9716 24.4654 78.6424 25.3796 77.2094 26.0686C77.0019 26.1682 76.8618 26.2937 76.7559 26.4743C75.7826 28.1407 74.6806 30.0303 73.202 31.622C71.8624 33.0644 70.17 34.6239 67.7783 35.2558H66.4948L66.501 35.2579ZM72.4829 28.2238C72.456 28.2279 72.4363 28.231 72.4196 28.233C72.3895 28.2372 72.3678 28.2403 72.346 28.2507C71.408 28.728 70.4948 29.2074 69.6523 29.8144C69.1106 30.2046 68.6396 30.5751 68.3697 31.1426C68.2514 31.3927 68.1051 31.7019 68.3812 31.9582C68.4683 32.0391 68.5659 32.0807 68.6697 32.0807C68.8211 32.0807 68.9664 31.9934 69.094 31.9178C69.1169 31.9043 69.1387 31.8907 69.1604 31.8783C69.8951 31.455 70.5031 30.8728 71.0012 30.3592C71.6145 29.7262 72.1177 29.0539 72.539 28.3037L72.595 28.204L72.4819 28.2238H72.4829ZM85.4222 21.1523C85.8145 21.1523 86.075 21.3349 86.2181 21.7105C86.27 21.8464 86.3095 21.9906 86.3489 22.1297C86.3603 22.1691 86.3706 22.2086 86.3821 22.248C86.4942 22.6413 86.6706 22.8094 86.9725 22.8094C87.0607 22.8094 87.1593 22.7948 87.2755 22.7647C87.4062 22.7305 87.5307 22.6703 87.6563 22.5811C87.951 22.3725 88.1917 22.0861 88.4148 21.6804C88.9256 20.7528 89.2249 19.6954 89.3894 18.25C89.3955 18.1929 89.4034 18.1369 89.4113 18.0788C89.4454 17.8318 89.4804 17.5765 89.413 17.2839L89.3929 17.1978L84.6565 21.1512H84.8059C84.891 21.1512 84.9668 21.1512 85.0352 21.1512C85.0944 21.1512 85.1484 21.1512 85.2002 21.1512C85.2687 21.1512 85.332 21.1512 85.3953 21.1491H85.4213L85.4222 21.1523Z" fill="white"/>
<path d="M14.2197 29.4614C13.1561 29.4614 12.1672 29.0099 11.5052 28.2224C10.8764 27.4742 10.5412 26.5632 10.5101 25.5141C10.4707 24.1964 10.7197 22.836 11.2686 21.3543C11.4896 20.7597 11.7304 20.1599 11.9628 19.5809C12.1465 19.1233 12.3364 18.6502 12.5159 18.1812C12.7005 17.6997 12.8769 17.1218 12.7887 16.4909C12.7535 16.2377 12.6725 15.9803 12.5429 15.7043C12.4754 15.5601 12.4837 15.4491 12.573 15.3069C12.9621 14.6895 13.3491 14.0576 13.7237 13.4454L13.8253 13.2794C13.8887 13.1756 13.9686 13.1019 14.0765 13.048C15.8249 12.1733 17.3959 10.9105 19.1682 8.95346C20.3127 7.69066 21.3472 6.30645 22.3475 4.96789C22.6287 4.59227 22.9182 4.20419 23.2067 3.82442C23.9174 2.88743 24.6262 1.98364 25.4687 1.21787C26.0197 0.71773 26.5395 0.412665 27.1061 0.258057H28.0669C28.9977 0.497751 29.4542 1.12656 29.501 2.23683C29.555 3.49237 28.9541 4.49265 28.4249 5.22316C27.6135 6.3438 26.6495 7.25589 25.4719 8.33088C23.4951 10.1364 21.4292 11.727 19.329 13.0583C18.4096 13.6415 17.4353 14.2101 16.4329 14.7476C16.4195 14.7549 16.406 14.7611 16.3925 14.7684C16.3292 14.7995 16.2576 14.8348 16.2368 14.9084C16.2213 14.9614 16.2368 15.0226 16.2815 15.0953C16.9891 16.2273 16.8906 17.4725 16.6799 18.6492C16.5066 19.6131 16.2586 20.577 16.019 21.5089C15.8612 22.1221 15.6983 22.7561 15.5571 23.3849C15.3662 24.2379 15.2542 24.9528 15.2034 25.6345C15.1712 26.0662 15.2417 26.4667 15.4119 26.8226C15.6859 27.3975 16.132 27.714 16.7359 27.7648C16.8169 27.771 16.8667 27.7897 16.8854 27.8178C16.903 27.8458 16.8978 27.8976 16.8698 27.9733C16.7577 28.2742 16.5751 28.5305 16.3261 28.7329C15.7491 29.2019 14.9999 29.4603 14.2155 29.4603L14.2197 29.4614Z" fill="white"/>
<path d="M2.9825 26.6335C1.94694 26.6335 1.33369 26.1635 0.932129 25.0615V23.8309C1.18635 22.5899 1.9791 21.6964 2.91298 20.7398C3.50132 20.1369 4.13116 19.5558 4.74026 18.9944C5.24662 18.5275 5.77063 18.045 6.2687 17.5511C7.54499 16.2852 9.17927 14.5793 10.4991 12.6181C10.744 12.254 10.9049 11.9572 11.019 11.6563C11.0626 11.5411 11.1135 11.3865 11.1145 11.2163C11.1145 11.1053 11.0896 11.0264 11.0377 10.9735C10.9931 10.9289 10.9298 10.906 10.8509 10.906C10.8239 10.906 10.7949 10.9081 10.7648 10.9133C10.4681 10.9611 10.2024 11.0752 9.95338 11.2609C9.34114 11.7165 8.85761 12.2758 8.33464 12.9077C8.16654 13.11 7.99844 13.3175 7.83553 13.5178C7.20983 14.2867 6.56339 15.0826 5.81732 15.7643C5.2819 16.254 4.61366 16.7749 3.72234 16.9316C3.60716 16.9524 3.49198 16.9617 3.37888 16.9617C2.45123 16.9617 1.74875 16.2841 1.66989 15.3139C1.59622 14.4029 1.90336 13.6009 2.60791 12.862C3.35916 12.0744 4.28473 11.4778 5.09409 10.9808C6.34445 10.2129 7.6664 9.52187 8.94581 8.85466L9.14607 8.74986C11.2037 7.67487 13.1638 6.45149 14.8095 5.39622C15.2827 5.09322 15.6873 4.85145 16.1232 4.65845C16.507 4.48828 16.8132 4.41357 17.1161 4.41357C17.1349 4.41357 17.1524 4.41357 17.1712 4.41357C17.6049 4.42706 17.8789 4.69373 17.9058 5.12539C17.9245 5.42527 17.8622 5.71477 17.7211 5.98559C17.5416 6.33009 17.3164 6.6528 17.0975 6.96616C17.0415 7.04606 16.9854 7.12595 16.9305 7.20689C15.0129 9.99918 13.333 12.9284 11.9415 15.425C11.6167 16.0082 11.2899 16.6038 10.9744 17.1786C9.9035 19.1304 8.79638 21.1497 7.56056 23.0495C7.01995 23.8807 6.41085 24.7523 5.62225 25.4963C4.90317 26.1749 4.1955 26.5287 3.39756 26.6107C3.25229 26.6252 3.11324 26.6335 2.98354 26.6335H2.9825Z" fill="white"/>
<path d="M40.0581 26.279C38.6717 26.277 37.7337 25.5558 37.2688 24.1342C37.2233 23.9952 37.1724 23.8323 37.1464 23.6714C37.1319 23.5791 37.1039 23.4069 36.9628 23.4069C36.9068 23.4069 36.8404 23.4349 36.7459 23.4971C35.9178 24.044 35.1417 24.5213 34.3739 24.955C33.1557 25.643 32.063 25.9636 30.9341 25.9636H30.8822C29.8643 25.9543 29.0518 25.5548 28.3961 24.7413C28.1501 24.4372 27.9686 24.1394 27.8398 23.8333C27.7994 23.7369 27.7371 23.6258 27.6209 23.6258C27.5618 23.6258 27.4964 23.6528 27.4041 23.7181C26.6611 24.236 25.7729 24.8284 24.8266 25.2953C23.9248 25.7405 22.9537 25.9657 21.9399 25.9657C21.6027 25.9657 21.255 25.9407 20.9063 25.892C20.1727 25.7893 19.5378 25.3908 19.0178 24.708C18.8788 24.5254 18.7491 24.4476 18.5821 24.4476C18.5084 24.4476 18.4243 24.4632 18.3268 24.4964C17.9201 24.6323 17.5568 24.6987 17.2155 24.6987C17.0505 24.6987 16.8866 24.6832 16.7299 24.652C16.126 24.5316 15.7639 24.1207 15.7618 23.5521C15.7618 23.2896 15.8624 23.1039 16.0803 22.9669C16.6272 22.6255 17.2134 22.3588 17.7654 22.1202C18.0446 21.9998 18.1504 21.84 18.1587 21.5298C18.1898 20.3458 18.5375 19.1391 19.2213 17.842C20.1572 16.0677 21.309 14.7882 22.7451 13.9312C23.5067 13.4767 24.2434 13.2546 24.9978 13.2536C25.6297 13.2536 26.1495 13.4549 26.5055 13.8347C26.8925 14.2486 27.0803 14.8578 27.0347 15.5519C26.9039 17.5286 25.9991 19.1992 24.1012 20.9674C23.6188 21.4166 23.0564 21.8556 22.3798 22.309C22.3103 22.3558 22.2169 22.4294 22.221 22.5249C22.2242 22.6183 22.3165 22.6836 22.3974 22.7293C22.5448 22.8143 22.7098 22.8549 22.9018 22.8549C23.0595 22.8549 23.2192 22.8268 23.3573 22.8009C24.3575 22.611 25.2365 22.0984 26.051 21.59C26.2658 21.4561 26.4754 21.3066 26.6778 21.1624C26.8375 21.0494 27.0014 20.932 27.1675 20.8231C27.3356 20.7131 27.4248 20.5647 27.459 20.3427C28.145 15.856 30.1206 11.8216 33.3311 8.3528C34.4434 7.15122 35.5443 6.23394 36.6992 5.54807C37.6009 5.01265 38.347 4.73664 39.121 4.65466C39.1989 4.64636 39.2767 4.64221 39.3535 4.64221C39.8941 4.64221 40.3756 4.84974 40.7076 5.22536C41.049 5.61136 41.1984 6.13641 41.1279 6.70295C40.9536 8.10377 40.332 9.34897 39.7468 10.3835C38.568 12.4681 37.1122 14.2694 35.8442 15.7574C34.5928 17.2256 33.1485 18.7323 31.428 20.3645C31.262 20.5222 31.2236 20.6758 31.2931 20.8948C31.4934 21.5184 31.9946 21.8629 32.7043 21.8629C32.8029 21.8629 32.9077 21.8556 33.0125 21.8421C34.3282 21.673 35.4198 20.9591 36.3838 20.3293C36.8705 20.0107 37.1298 19.6164 37.2502 19.0093C37.8708 15.8736 39.2176 12.8634 41.3666 9.80651C42.6677 7.95643 43.9678 6.43213 45.3438 5.14754C46.2621 4.28941 47.3838 3.32752 48.7431 2.69975C49.265 2.45902 49.7164 2.34592 50.1636 2.34592C50.1948 2.34592 50.2269 2.34592 50.258 2.34799C51.1463 2.38016 51.7523 2.98925 51.7668 3.86501C51.7823 4.84662 51.4514 5.76078 51.139 6.54005C50.4511 8.26045 49.4684 10.0286 48.0458 12.1038C46.3918 14.5195 44.5292 16.7411 42.5121 18.7064C42.0223 19.1837 41.4734 19.6786 40.7855 20.2628C40.5675 20.4485 40.5094 20.6426 40.5873 20.9352C40.8103 21.783 41.5097 22.3308 42.3678 22.3308C42.6988 22.3308 43.0257 22.2478 43.338 22.0849C43.4397 22.032 43.5642 21.9718 43.6359 21.9718C43.6878 21.9718 43.7333 21.9998 43.7344 22.334C43.7365 23.2128 43.4055 24.1021 42.8026 24.8378C42.1997 25.5735 41.3935 26.0726 40.5322 26.2448C40.3797 26.2749 40.2292 26.277 40.0695 26.279H40.0581ZM23.9384 16.2088C23.8896 16.2088 23.8357 16.215 23.7806 16.2274C23.4891 16.2938 23.2265 16.4516 22.9983 16.6985C22.1027 17.6666 21.5881 18.8361 21.4677 20.1736L21.4573 20.2877L21.5517 20.2223C22.5095 19.5665 23.2919 18.7541 23.8771 17.8078C24.1033 17.4415 24.2434 17.0834 24.3047 16.712C24.3316 16.5491 24.3047 16.4163 24.2289 16.327C24.1625 16.2492 24.0619 16.2077 23.9373 16.2077L23.9384 16.2088ZM36.8891 8.73258C36.8196 8.73258 36.7428 8.75022 36.6619 8.78342C36.3931 8.89653 36.1358 9.07807 35.8535 9.35518C34.3842 10.7985 33.1214 12.5324 32.1004 14.5102C31.6739 15.3361 31.3751 16.2161 31.1863 17.2008L31.1551 17.3606L31.2755 17.2516C31.3336 17.1987 31.3845 17.1541 31.4301 17.1126C31.5183 17.0337 31.5878 16.9725 31.6553 16.9061C32.5082 16.0666 33.303 15.1867 34.0169 14.2923C35.3254 12.6517 36.2697 11.2333 36.9867 9.8304L37.0074 9.78997C37.1008 9.60832 37.1973 9.4216 37.2191 9.20678C37.2357 9.04701 37.2045 8.91831 37.1288 8.83427C37.0697 8.7689 36.9867 8.73362 36.888 8.73362L36.8891 8.73258ZM47.1088 7.15952C46.9636 7.15952 46.8255 7.24356 46.7031 7.31828C46.6824 7.33073 46.6616 7.34318 46.6418 7.35563C46.1511 7.64409 45.7661 8.06745 45.4559 8.44307C43.9669 10.2434 42.6843 12.413 41.5346 15.0757C41.4257 15.3288 41.326 15.5903 41.2306 15.8435C41.186 15.9618 41.1413 16.0811 41.0947 16.1984L41.0469 16.3218L41.1673 16.2679C41.4174 16.1559 41.5834 15.9722 41.7442 15.7958C41.7878 15.748 41.8314 15.7003 41.876 15.6547C43.5404 13.9436 45.0055 12.1288 46.2309 10.262C46.7405 9.48591 47.1815 8.77616 47.4211 7.94397L47.4232 7.93567C47.4865 7.71465 47.5736 7.4127 47.3215 7.23111C47.2562 7.18442 47.1845 7.16055 47.1078 7.16055L47.1088 7.15952Z" fill="white"/>
<path d="M53.7684 35.2253C53.1281 35.2169 52.5481 34.9554 52.1361 34.4906C51.7128 34.0133 51.5198 33.3865 51.5904 32.7245C51.746 31.2729 52.4682 30.0972 53.8628 29.0243C55.2065 27.9908 56.7713 27.2998 58.1327 26.7343C59.162 26.3057 60.2121 25.9259 61.1159 25.6032C61.3037 25.5358 61.4324 25.433 61.5309 25.268C61.7302 24.935 61.9377 24.5978 62.139 24.2709C62.2199 24.1391 62.3008 24.0073 62.3828 23.8745L62.4233 23.8081L62.3465 23.7925C62.3279 23.7894 62.3102 23.7873 62.2925 23.7873C62.2075 23.7873 62.1483 23.8299 62.1006 23.8642C62.0851 23.8755 62.0695 23.8869 62.0539 23.8952C61.3306 24.3061 60.3615 24.797 59.2803 24.9506C59.1029 24.9754 58.9275 24.9889 58.7604 24.9889C58.0362 24.9889 57.426 24.7524 56.9965 24.3041C56.5752 23.8651 56.3448 23.2447 56.3303 22.51C56.3085 21.4101 56.7194 20.4192 57.6616 19.3006C58.0766 18.8067 58.555 18.2982 59.1215 17.7452C59.1413 17.7265 59.162 17.7078 59.1828 17.6902C59.2564 17.6259 59.3404 17.5532 59.3758 17.4339L59.3872 17.3935L59.3509 17.3717C59.2315 17.3 59.107 17.2917 59.0126 17.2917C59.0022 17.2917 58.9929 17.2917 58.9825 17.2917C58.9441 17.2917 58.9057 17.2927 58.8673 17.2927C58.2354 17.2927 57.6035 17.1838 56.9923 17.078C56.9165 17.0645 56.8408 17.052 56.7651 17.0386C56.6758 17.023 56.5835 17.0136 56.4901 17.0085C56.4507 17.0064 56.4144 17.0053 56.3801 17.0053C56.0522 17.0053 55.9308 17.1122 55.8395 17.4837C55.7835 17.7109 55.7357 17.9444 55.69 18.1696C55.6185 18.5172 55.5448 18.8762 55.441 19.2197C54.7064 21.6342 53.4373 23.6369 51.6671 25.1705C50.7157 25.9954 49.6043 26.4333 48.3644 26.4707C48.3084 26.4727 48.2533 26.4727 48.1973 26.4727C46.4209 26.4727 45.2047 25.5981 44.771 24.0105C44.5655 23.2592 44.551 22.4643 44.7253 21.6477C45.3593 18.6864 47.0082 16.3973 49.6261 14.845C50.394 14.3895 51.25 14.1311 52.1694 14.0771C52.2233 14.0741 52.2752 14.072 52.326 14.072C52.6954 14.072 52.9953 14.1591 53.2434 14.3387C53.4695 14.5025 53.5941 14.6987 53.6034 14.9051C53.6127 15.1106 53.508 15.3151 53.2994 15.4966C52.987 15.7695 52.6561 16.0331 52.3364 16.2883C51.8508 16.6753 51.3476 17.0759 50.8941 17.52C50.1325 18.2661 49.3875 19.1128 49.099 20.2428C49.0336 20.4991 49.0025 20.7149 49.0025 20.9245C49.0025 21.2835 49.1166 21.5896 49.3356 21.8076C49.5462 22.0192 49.8358 22.1303 50.1719 22.1303C50.2467 22.1303 50.3244 22.1241 50.4022 22.1126C51.0467 22.0192 51.5437 21.6613 51.967 20.9867C52.4516 20.2138 52.7121 19.339 52.9642 18.4923L52.9797 18.4414C53.0285 18.2785 53.0753 18.1156 53.123 17.9527C53.3004 17.3395 53.4851 16.7044 53.7279 16.1016C53.8918 15.6938 54.0631 15.3824 54.2664 15.121C54.5643 14.7381 54.9233 14.5523 55.3632 14.5523C55.4525 14.5523 55.5469 14.5606 55.6434 14.5762C56.1643 14.6614 56.6748 14.8201 57.1676 14.9736C57.2403 14.9965 57.313 15.0193 57.3866 15.0411C58.0466 15.2445 58.7251 15.3472 59.4048 15.3472C60.1851 15.3472 60.9945 15.2113 61.809 14.9435C62.3081 14.7796 62.8124 14.6022 63.3001 14.431C63.6747 14.2992 64.0618 14.1632 64.4446 14.0335C64.84 13.8997 65.1886 13.8354 65.5113 13.8354C65.6908 13.8354 65.8683 13.8561 66.0374 13.8956C66.5054 14.0066 66.7658 14.3272 66.716 14.734C66.6839 14.9965 66.5002 15.178 66.3145 15.342C65.8807 15.7249 65.3868 16.0434 64.9084 16.3516C64.8347 16.3994 64.7611 16.4471 64.6874 16.4948C63.793 17.077 62.9951 17.6113 62.2874 18.2682C61.6461 18.8628 61.2539 19.3961 61.0162 19.9947C60.8928 20.3071 60.8524 20.6319 60.8306 20.8809C60.8139 21.0729 60.8658 21.2441 60.981 21.3769C61.1128 21.5305 61.3244 21.6229 61.5755 21.6384C61.617 21.6404 61.6575 21.6425 61.699 21.6425C62.2936 21.6425 62.8176 21.379 63.3468 20.8114C63.9476 20.1681 64.3741 19.3929 64.7871 18.6437L64.8016 18.6168C64.9084 18.4218 65.0143 18.2256 65.1201 18.0295C65.4822 17.3561 65.8568 16.6598 66.3051 16.0227C66.7399 15.4053 67.2971 14.7298 68.1387 14.3988C68.4292 14.2847 68.6917 14.2296 68.9407 14.2296C68.9739 14.2296 69.0071 14.2296 69.0403 14.2328C69.3526 14.2525 69.6224 14.3842 69.8207 14.6146C70.0448 14.8771 70.1475 15.2351 70.1112 15.6253C70.0603 16.1638 69.8922 16.6962 69.5643 17.3508C68.7311 19.0194 67.6768 20.5914 66.6579 22.1126L66.4981 22.3502C66.276 22.6813 66.0633 23.0268 65.8579 23.3609L65.7178 23.5892C65.7105 23.6005 65.7022 23.612 65.695 23.6234C65.6556 23.6784 65.6016 23.7531 65.6358 23.8683L65.6514 23.9191L65.7022 23.9056C65.9264 23.8444 66.109 23.7168 66.2854 23.5933C66.3134 23.5736 66.3414 23.5539 66.3694 23.5352C66.6662 23.3308 66.9381 23.0901 67.2006 22.8556C67.3562 22.7165 67.5181 22.5733 67.6821 22.4395C67.8013 22.3419 67.9322 22.2413 68.0712 22.1645C68.1562 22.1178 68.2331 22.094 68.2984 22.094C68.4271 22.094 68.5163 22.1884 68.5661 22.3751C68.6585 22.7248 68.5661 23.0537 68.398 23.4397C68.0546 24.2304 67.4611 24.8208 66.9256 25.294C66.0093 26.1044 64.9447 26.7872 63.7598 27.3237C63.5243 27.4305 63.3468 27.5727 63.2016 27.7719C62.0663 29.3263 61.0816 30.6046 59.962 31.7906C59.0749 32.7307 57.8566 33.9044 56.3044 34.638C55.4659 35.0343 54.6587 35.2273 53.8379 35.2273C53.8151 35.2273 53.7912 35.2273 53.7684 35.2273V35.2253ZM59.2564 28.6248C58.7646 28.7815 58.3008 28.9786 57.7529 29.2629C57.0038 29.6511 56.1487 30.1252 55.4794 30.836C55.3352 30.9886 55.1609 31.2003 55.0893 31.4773C55.0446 31.6516 55.0685 31.8114 55.1557 31.9255C55.2428 32.0396 55.3891 32.103 55.5676 32.1061H55.5791C55.825 32.1061 56.0304 31.9982 56.2037 31.8965C57.0722 31.3859 57.7353 30.6679 58.3402 29.9768C58.7003 29.5649 59.0105 29.1623 59.3177 28.7089L59.4059 28.5792L59.2564 28.6269V28.6248Z" fill="white"/>
<path d="M84.9116 14.2029C84.8721 14.2029 84.8317 14.2018 84.7912 14.1987C84.565 14.1842 84.4042 14.1084 84.3367 13.985C84.2703 13.8635 84.2931 13.6986 84.401 13.5077C84.4726 13.3811 84.5567 13.2576 84.6387 13.1382C84.7227 13.0158 84.8088 12.8892 84.8836 12.7574C85.1564 12.2729 85.089 11.9024 84.6709 11.5912C84.0016 11.0931 83.737 10.5825 83.8116 9.93504C83.8988 9.1786 84.2568 8.56641 84.8753 8.11504C85.3037 7.80271 85.8039 7.63773 86.3228 7.63773C87.3562 7.63773 88.2486 8.28625 88.5433 9.25123C88.6001 9.43699 88.6229 9.63203 88.6141 9.84894C88.6159 10.6458 88.2735 11.3349 87.9373 11.9034C87.3687 12.8674 86.7388 13.5087 85.9564 13.9207C85.5964 14.1105 85.254 14.2029 84.9116 14.2029Z" fill="white"/>
</g>
</g>
</g>
<defs>
<clipPath id="clip0_6_32">
<rect width="94.5" height="35" fill="white" transform="translate(0.932129 0.258057)"/>
</clipPath>
<clipPath id="clip1_6_32">
<rect width="94.5" height="35" fill="white" transform="translate(0.932129 0.258057)"/>
</clipPath>
<clipPath id="clip2_6_32">
<rect width="94.5" height="35" fill="white" transform="translate(0.932129 0.258057)"/>
</clipPath>
</defs>
</svg>
