<svg width="85" height="31" viewBox="0 0 85 31" fill="none" xmlns="http://www.w3.org/2000/svg">
<g clip-path="url(#clip0_6_22)">
<g clip-path="url(#clip1_6_22)">
<g clip-path="url(#clip2_6_22)">
<path d="M43.2231 16.3174C43.2231 18.7449 43.2231 21.1723 43.2231 23.5997C43.2231 24.1129 43.2671 24.1541 43.7857 24.1554C44.3607 24.1582 44.9343 24.1554 45.5092 24.1554C46.157 24.1554 46.1624 24.1513 46.1624 23.5009C46.1624 20.3682 46.1514 17.2354 46.1679 14.1041C46.1789 12.0733 48.2083 10.498 50.1596 10.9728C51.6772 11.3419 52.7064 12.6798 52.7091 14.3168C52.716 17.3974 52.7106 20.478 52.7119 23.5572C52.7119 24.1294 52.7297 24.1431 53.3115 24.1431C53.8728 24.1431 54.434 24.1431 54.9952 24.1431C55.427 24.1431 55.6429 23.9244 55.6429 23.4872C55.6429 20.3943 55.636 17.2999 55.647 14.207C55.6525 12.4341 57.0411 10.9673 58.7591 10.8863C60.5951 10.7999 62.1882 12.3038 62.1937 14.1494C62.202 17.3082 62.1951 20.467 62.1965 23.6257C62.1965 24.1088 62.2335 24.1472 62.7015 24.1513C63.3285 24.1554 63.9543 24.1568 64.5814 24.1541C65.0795 24.1513 65.1165 24.1143 65.1179 23.6176C65.1192 21.3589 65.1289 19.1016 65.1152 16.843C65.1069 15.6039 65.2029 14.3621 65.0451 13.1271C64.8572 11.6548 64.2795 10.358 63.1597 9.35909C60.8091 7.26375 57.0562 7.70285 55.0775 10.2867C54.8717 10.5557 54.6723 10.5497 54.4792 10.2689C53.0055 8.12411 50.0484 7.38861 47.7651 8.60301C47.278 8.86236 46.843 9.19305 46.4821 9.61706C46.4176 9.69253 46.349 9.8174 46.2365 9.77348C46.1226 9.7282 46.1721 9.59099 46.1679 9.49219C46.1597 9.29734 46.1528 9.09974 46.1679 8.90489C46.1899 8.59752 46.054 8.485 45.7535 8.49049C45.0879 8.50146 44.4225 8.49186 43.757 8.4946C43.2533 8.49598 43.23 8.51656 43.23 9.03113C43.2273 11.4586 43.23 13.8859 43.2287 16.3133L43.2231 16.3174Z" fill="white"/>
<path d="M0.474609 12.4148C0.474609 16.1472 0.474609 19.8796 0.474609 23.6106C0.474609 24.1155 0.499309 24.1388 1.00702 24.1416C1.59432 24.1444 2.18162 24.1416 2.76892 24.1457C3.39464 24.1498 3.40699 24.143 3.40699 23.5186C3.40699 20.2171 3.40699 16.9156 3.40699 13.6142C3.40699 13.0117 3.42345 12.9981 4.01486 12.9966C6.08962 12.9966 8.16438 12.9911 10.2391 13.0008C10.5795 13.0022 10.7029 12.8827 10.6934 12.5438C10.6755 11.9181 10.6905 11.2911 10.6892 10.6653C10.6878 10.1617 10.6673 10.1397 10.1527 10.1397C8.104 10.137 6.05532 10.1397 4.00663 10.1384C3.42345 10.1384 3.40287 10.1178 3.40149 9.55244C3.40013 7.7782 3.40013 6.00258 3.40149 4.22833C3.40149 3.6328 3.41933 3.6177 4.01899 3.61497C4.07113 3.61497 4.12328 3.61497 4.17541 3.61497C6.88961 3.61497 9.60381 3.61497 12.318 3.61497C12.8697 3.61497 12.8848 3.59713 12.8875 3.03727C12.8902 2.47604 12.8902 1.91482 12.8888 1.35359C12.8888 0.762173 12.8848 0.759429 12.3043 0.759429C8.55957 0.758057 4.81486 0.758057 1.07014 0.758057C0.67312 0.758057 0.474609 0.963886 0.474609 1.37554C0.474609 5.05439 0.474609 8.73462 0.474609 12.4148Z" fill="white"/>
<path d="M19.8441 16.3094C19.8441 13.8696 19.8372 11.4299 19.851 8.99014C19.8537 8.61141 19.7275 8.47968 19.3542 8.49203C18.7025 8.51261 18.0493 8.51536 17.3975 8.49203C17.0201 8.47968 16.8953 8.61827 16.8994 8.99151C16.9159 10.1922 16.9048 11.3915 16.9048 12.5921C16.9048 16.2587 16.9048 19.9237 16.9048 23.5903C16.9048 24.1159 16.9378 24.1488 17.4579 24.1542C18.0575 24.1597 18.6585 24.1583 19.2581 24.1556C19.8194 24.1529 19.8428 24.1281 19.8428 23.5491C19.8428 21.1355 19.8428 18.7218 19.8428 16.3081L19.8441 16.3094Z" fill="white"/>
<path d="M18.3946 5.42548C19.4677 5.41725 20.3102 4.57746 20.3129 3.51676C20.3143 2.43136 19.4375 1.58883 18.3204 1.60118C17.2707 1.61353 16.4337 2.48625 16.4488 3.55518C16.4639 4.62001 17.3119 5.43371 18.3959 5.42548H18.3946Z" fill="white"/>
<path d="M38.4961 12.6906C38.4961 11.4639 38.4837 10.2372 38.5015 9.01044C38.5071 8.61799 38.3753 8.47392 37.9801 8.49588C37.4861 8.52332 36.988 8.49999 36.4927 8.50273C35.432 8.50959 35.5761 8.40119 35.5596 9.41387C35.5582 9.53736 35.6227 9.71164 35.4868 9.76926C35.3551 9.82415 35.2645 9.66361 35.1712 9.58128C32.7727 7.46261 28.9648 7.50514 26.6774 9.74731C24.2788 12.0993 23.7862 14.9726 24.7687 18.082C25.7003 21.0295 28.2307 22.8257 31.1424 22.7872C32.6711 22.7667 34.0351 22.2823 35.1808 21.2421C35.2728 21.1598 35.3619 20.9938 35.4965 21.061C35.6199 21.1228 35.5596 21.2984 35.561 21.4233C35.5651 22.0367 35.5691 22.6501 35.561 23.2634C35.5486 24.2473 35.2343 25.1351 34.6608 25.9268C33.3338 27.7587 30.7034 28.5917 28.4653 27.2139C28.1922 27.0466 28.077 27.0877 27.9315 27.358C27.6173 27.944 27.2702 28.5121 26.9367 29.0898C26.6582 29.5714 26.6582 29.5823 27.1658 29.8459C28.5422 30.5607 29.9912 30.8695 31.5487 30.7226C35.4758 30.3508 38.4988 27.0507 38.4961 23.107C38.4947 20.8484 38.4961 18.5911 38.4961 16.3325C38.4961 15.1181 38.4961 13.9051 38.4961 12.6906ZM31.749 19.8851C30.3342 20.0511 29.183 19.4514 28.2801 18.3715C26.6239 16.3914 26.982 13.2615 29.0376 11.7054C30.923 10.2784 33.5301 10.7916 34.8186 12.8471C35.3084 13.6279 35.5582 14.4814 35.561 15.4035C35.561 17.7349 33.9967 19.6203 31.749 19.8837V19.8851Z" fill="white"/>
<path d="M84.2376 12.8702C84.2376 11.5652 84.2295 10.2589 84.2418 8.95395C84.2446 8.61776 84.1334 8.48466 83.789 8.49426C83.1111 8.5121 82.4305 8.50935 81.7526 8.49426C81.4083 8.48603 81.2834 8.62325 81.3025 8.95807C81.3204 9.28328 81.3066 9.61123 81.3012 9.93644C81.2971 10.1423 81.2106 10.204 81.0378 10.0627C80.9774 10.0133 80.9239 9.95428 80.8662 9.90213C77.6127 6.9972 72.4876 7.54882 69.9861 11.0712C67.7824 14.1751 67.7398 18.2794 69.8763 21.4354C71.8028 24.2813 75.6094 25.4024 78.7626 24.07C79.5804 23.7242 80.3036 23.2522 80.9636 22.6676C81.0391 22.6004 81.1091 22.4783 81.2189 22.5167C81.3602 22.5661 81.3025 22.7184 81.3066 22.8268C81.3163 23.1012 81.3259 23.3757 81.3066 23.6487C81.2793 24.0192 81.4247 24.1716 81.8007 24.1606C82.4264 24.1428 83.0535 24.1579 83.6806 24.1538C84.2103 24.1496 84.2391 24.1222 84.2391 23.6007C84.2391 21.1719 84.2391 18.7446 84.2391 16.3158C84.2391 15.1673 84.2391 14.0187 84.2391 12.8688L84.2376 12.8702ZM76.9802 21.692C75.5751 21.9404 74.3167 21.5123 73.2217 20.6244C70.2838 18.2451 70.6818 13.3861 73.9572 11.5118C76.1527 10.2562 78.941 10.9821 80.375 13.183C80.9965 14.1368 81.319 15.1809 81.3095 16.3226C81.3066 19.0341 79.5558 21.2364 76.9802 21.6934V21.692Z" fill="white"/>
</g>
</g>
</g>
<defs>
<clipPath id="clip0_6_22">
<rect width="84.38" height="30" fill="white" transform="translate(0.472168 0.758057)"/>
</clipPath>
<clipPath id="clip1_6_22">
<rect width="84.38" height="30" fill="white" transform="translate(0.472168 0.758057)"/>
</clipPath>
<clipPath id="clip2_6_22">
<rect width="84.375" height="30" fill="white" transform="translate(0.474609 0.758057)"/>
</clipPath>
</defs>
</svg>
