<svg width="125" height="26" viewBox="0 0 125 26" fill="none" xmlns="http://www.w3.org/2000/svg">
<g clip-path="url(#clip0_6_64)">
<g clip-path="url(#clip1_6_64)">
<g clip-path="url(#clip2_6_64)">
<path d="M4.96197 16.7318C4.96197 18.1678 5.27716 19.2703 5.68914 19.9373C6.22928 20.811 7.03492 21.1811 7.85625 21.1811C8.91561 21.1811 9.88473 20.9182 11.7523 18.3352C13.2485 16.2649 15.0115 13.3588 16.1977 11.537L18.2066 8.45045C19.6021 6.30688 21.2173 3.92397 23.0692 2.30877C24.5811 0.990455 26.212 0.258057 27.8533 0.258057C30.609 0.258057 33.2338 1.85495 35.2427 4.84993C37.4412 8.13003 38.5084 12.2615 38.5084 16.5251C38.5084 19.0598 38.0088 20.9221 37.1587 22.3935C36.3374 23.8164 34.7366 25.2381 32.0437 25.2381V21.1811C34.3494 21.1811 34.9249 19.0624 34.9249 16.6376C34.9249 13.1823 34.1193 9.34764 32.3445 6.60768C31.085 4.66421 29.4528 3.47668 27.6572 3.47668C25.715 3.47668 24.1521 4.94148 22.3957 7.55326C21.4618 8.94089 20.5032 10.6319 19.4268 12.5401L18.2419 14.6392C15.8616 18.8597 15.2587 19.8209 14.0686 21.4074C11.9825 24.1852 10.2012 25.2381 7.85625 25.2381C5.07445 25.2381 3.31539 24.0335 2.22594 22.2182C1.3366 20.739 0.89978 18.7982 0.89978 16.5866L4.96197 16.7318Z" fill="white"/>
<path d="M4.10266 5.13635C5.96504 2.26561 8.65268 0.258057 11.7353 0.258057C13.5205 0.258057 15.2953 0.786429 17.1485 2.29962C19.1757 3.95405 21.3362 6.67831 24.0317 11.1682L24.9982 12.7794C27.3314 16.6664 28.6589 18.6661 29.4358 19.6091C30.435 20.8201 31.1347 21.1811 32.0436 21.1811C34.3494 21.1811 34.9248 19.0624 34.9248 16.6376L38.5084 16.5251C38.5084 19.0598 38.0088 20.9221 37.1587 22.3935C36.3373 23.8164 34.7365 25.2381 32.0436 25.2381C30.3696 25.2381 28.8865 24.8745 27.2464 23.3273C25.9857 22.1397 24.5117 20.0302 23.3778 18.1338L20.0049 12.4996C18.3125 9.67198 16.7601 7.56373 15.8616 6.60899C14.8951 5.58233 13.6526 4.34248 11.6699 4.34248C10.0652 4.34248 8.70238 5.46854 7.56193 7.19099L4.10266 5.13635Z" fill="white"/>
<path d="M11.67 4.34248C10.0652 4.34248 8.70243 5.46854 7.56199 7.19099C5.9494 9.6249 4.96197 13.2503 4.96197 16.7318C4.96197 18.1678 5.27717 19.2703 5.68914 19.9373L2.22594 22.2182C1.3366 20.739 0.89978 18.7982 0.89978 16.5866C0.89978 12.565 2.00361 8.37329 4.10271 5.13635C5.9651 2.26561 8.65274 0.258057 11.7353 0.258057L11.67 4.34248Z" fill="white"/>
<path d="M46.4053 1.048H51.1044L59.0941 15.5024L67.085 1.048H71.6822V24.7986H67.8488V6.59592L60.8414 19.201H57.2448L50.2386 6.59592V24.7986H46.4053V1.048ZM83.6935 9.90348C80.9444 9.90348 79.2886 11.9725 78.8924 14.5346H88.2226C88.0303 11.8953 86.508 9.90348 83.6935 9.90348ZM75.0917 15.9942C75.0917 10.6032 78.5758 6.67962 83.7602 6.67962C88.8595 6.67962 91.9042 10.5535 91.9042 16.2819V17.3347H78.8924C79.354 20.1217 81.2033 21.9998 84.1852 21.9998C86.5642 21.9998 88.0513 21.274 89.4611 19.9465L91.4974 22.4406C89.5788 24.2049 87.1384 25.2224 84.0492 25.2224C78.4372 25.2224 75.0917 21.1301 75.0917 15.9942ZM96.5523 10.2435H93.0237V7.10467H96.5523V1.9138H100.251V7.10467H105.612V10.2435H100.251V18.1992C100.251 20.9156 101.119 21.8808 103.254 21.8808C104.228 21.8808 104.787 21.7971 105.612 21.6598V24.7646C104.584 25.055 103.603 25.1884 102.541 25.1884C98.5481 25.1884 96.5523 23.0069 96.5523 18.6399V10.2435ZM121.186 13.2961C120.443 11.4206 118.786 10.0395 116.351 10.0395C113.186 10.0395 111.16 12.2851 111.16 15.9431C111.16 19.5097 113.025 21.8638 116.199 21.8638C118.694 21.8638 120.476 20.4121 121.186 18.6059V13.2961ZM124.884 24.7986H121.254V22.3215C120.239 23.7798 118.392 25.2224 115.401 25.2224C110.591 25.2224 107.376 21.1955 107.376 15.9431C107.376 10.6411 110.668 6.67962 115.605 6.67962C118.046 6.67962 119.96 7.65528 121.254 9.37772V7.10467H124.884V24.7986Z" fill="white"/>
</g>
</g>
</g>
<defs>
<clipPath id="clip0_6_64">
<rect width="124.08" height="24.98" fill="white" transform="translate(0.852051 0.258057)"/>
</clipPath>
<clipPath id="clip1_6_64">
<rect width="124.08" height="24.98" fill="white" transform="translate(0.852051 0.258057)"/>
</clipPath>
<clipPath id="clip2_6_64">
<rect width="123.985" height="24.98" fill="white" transform="translate(0.89978 0.258057)"/>
</clipPath>
</defs>
</svg>
