<svg width="113" height="39" viewBox="0 0 113 39" fill="none" xmlns="http://www.w3.org/2000/svg">
<g clip-path="url(#clip0_6_49)">
<g clip-path="url(#clip1_6_49)">
<g clip-path="url(#clip2_6_49)">
<path d="M48.133 20.2352C48.133 25.507 44.0088 29.3917 38.9476 29.3917C33.8863 29.3917 29.7622 25.507 29.7622 20.2352C29.7622 14.9262 33.8863 11.0787 38.9476 11.0787C44.0088 11.0787 48.133 14.9262 48.133 20.2352ZM44.112 20.2352C44.112 16.9408 41.7218 14.6868 38.9476 14.6868C36.1734 14.6868 33.7831 16.9408 33.7831 20.2352C33.7831 23.4965 36.1734 25.7836 38.9476 25.7836C41.7218 25.7836 44.112 23.4924 44.112 20.2352Z" fill="white"/>
<path d="M67.9486 20.2352C67.9486 25.507 63.8245 29.3917 58.7633 29.3917C53.702 29.3917 49.5779 25.507 49.5779 20.2352C49.5779 14.9304 53.702 11.0787 58.7633 11.0787C63.8245 11.0787 67.9486 14.9262 67.9486 20.2352ZM63.9277 20.2352C63.9277 16.9408 61.5375 14.6868 58.7633 14.6868C55.9891 14.6868 53.5988 16.9408 53.5988 20.2352C53.5988 23.4965 55.9891 25.7836 58.7633 25.7836C61.5375 25.7836 63.9277 23.4924 63.9277 20.2352Z" fill="white"/>
<path d="M86.9386 11.6319V28.0706C86.9386 34.8327 82.9507 37.5945 78.2362 37.5945C73.7984 37.5945 71.1274 34.6263 70.1201 32.1989L73.6209 30.7416C74.2442 32.2319 75.7717 33.9906 78.2321 33.9906C81.2499 33.9906 83.12 32.1287 83.12 28.6238V27.3069H82.9796C82.0797 28.4174 80.3458 29.3875 78.1578 29.3875C73.5796 29.3875 69.3853 25.3996 69.3853 20.2682C69.3853 15.0996 73.5796 11.0787 78.1578 11.0787C80.3417 11.0787 82.0755 12.0488 82.9796 13.1263H83.12V11.636H86.9386V11.6319ZM83.4048 20.2682C83.4048 17.044 81.254 14.6868 78.517 14.6868C75.7428 14.6868 73.4186 17.044 73.4186 20.2682C73.4186 23.4594 75.7428 25.7836 78.517 25.7836C81.254 25.7836 83.4048 23.4594 83.4048 20.2682Z" fill="white"/>
<path d="M93.2342 1.99652V28.8302H89.3124V1.99652H93.2342Z" fill="white"/>
<path d="M108.517 23.2488L111.638 25.3295C110.631 26.8198 108.203 29.3876 104.009 29.3876C98.8074 29.3876 94.9227 25.3666 94.9227 20.2311C94.9227 14.7859 98.8404 11.0746 103.559 11.0746C108.311 11.0746 110.635 14.8561 111.394 16.8996L111.811 17.9399L99.5712 23.0094C100.508 24.8465 101.966 25.7836 104.009 25.7836C106.057 25.7836 107.477 24.7763 108.517 23.2488ZM98.9106 19.9545L107.093 16.5569C106.643 15.4134 105.289 14.6166 103.695 14.6166C101.652 14.6166 98.8074 16.4207 98.9106 19.9545Z" fill="white"/>
<path d="M14.917 17.8532V13.9685H28.0077C28.1357 14.6455 28.2017 15.4464 28.2017 16.3133C28.2017 19.2279 27.405 22.8319 24.8372 25.3996C22.3396 28.0005 19.1484 29.3875 14.9211 29.3875C7.08565 29.3875 0.496948 23.0053 0.496948 15.1698C0.496948 7.33438 7.08565 0.952087 14.9211 0.952087C19.2558 0.952087 22.3437 2.65293 24.6638 4.86981L21.9226 7.61097C20.2589 6.05049 18.0049 4.83678 14.917 4.83678C9.19519 4.83678 4.72016 9.44805 4.72016 15.1698C4.72016 20.8916 9.19519 25.5029 14.917 25.5029C18.6283 25.5029 20.7419 24.0126 22.096 22.6585C23.1941 21.5604 23.9166 19.9916 24.2014 17.8491L14.917 17.8532Z" fill="white"/>
</g>
</g>
</g>
<defs>
<clipPath id="clip0_6_49">
<rect width="112.34" height="37.98" fill="white" transform="translate(0.322754 0.758057)"/>
</clipPath>
<clipPath id="clip1_6_49">
<rect width="112.34" height="37.98" fill="white" transform="translate(0.322754 0.758057)"/>
</clipPath>
<clipPath id="clip2_6_49">
<rect width="112.289" height="37.98" fill="white" transform="translate(0.348389 0.758057)"/>
</clipPath>
</defs>
</svg>
